<?xml version="1.0" standalone="no"?>
<!DOCTYPE svg PUBLIC "-//W3C//DTD SVG 20010904//EN"
 "http://www.w3.org/TR/2001/REC-SVG-20010904/DTD/svg10.dtd">
<svg version="1.0" xmlns="http://www.w3.org/2000/svg"
 width="700.000000pt" height="700.000000pt" viewBox="0 0 700.000000 700.000000"
 preserveAspectRatio="xMidYMid meet">
<metadata>
Created by potrace 1.14, written by Peter Selinger 2001-2017
</metadata>
<g transform="translate(0.000000,700.000000) scale(0.100000,-0.100000)"
fill="#000000" stroke="none">
<path d="M498 6558 c-35 -7 -58 -31 -59 -62 0 -12 -1 -641 -1 -1399 l-1 -1378
22 -22 22 -22 1399 0 1399 0 23 23 23 23 0 1399 0 1399 -22 22 -22 22 -1375 1
c-756 1 -1390 -2 -1408 -6z"/>
<path d="M3744 6562 c-18 -2 -40 -12 -50 -24 -18 -19 -19 -72 -19 -1420 l0
-1400 25 -22 26 -21 1434 1 c789 1 1438 2 1443 3 4 0 16 10 27 21 20 20 20 33
20 1418 0 1393 0 1398 -20 1420 -12 12 -33 22 -48 23 -84 2 -2812 3 -2838 1z"/>
<path d="M482 3319 c-47 -18 -45 48 -45 -1432 0 -1054 3 -1398 12 -1414 6 -13
25 -26 41 -30 17 -5 651 -8 1411 -7 l1380 1 22 22 22 21 0 1397 0 1398 -22 25
-21 25 -1392 0 c-765 0 -1399 -3 -1408 -6z"/>
<path d="M3709 3312 c-15 -8 -29 -23 -31 -35 -2 -12 -3 -646 -3 -1409 l0
-1388 22 -22 22 -22 1428 0 c785 0 1440 3 1454 7 14 4 31 18 37 32 9 19 12
375 12 1414 0 1352 -1 1389 -19 1412 l-19 24 -1438 0 c-1174 0 -1442 -2 -1465
-13z"/>
</g>
</svg>
